<?xml version="1.0" encoding="utf-8"?>
<!-- Generator: Adobe Illustrator 16.0.0, SVG Export Plug-In . SVG Version: 6.00 Build 0)  -->
<!DOCTYPE svg PUBLIC "-//W3C//DTD SVG 1.1//EN" "http://www.w3.org/Graphics/SVG/1.1/DTD/svg11.dtd">
<svg version="1.1" id="Layer_1" xmlns="http://www.w3.org/2000/svg" xmlns:xlink="http://www.w3.org/1999/xlink" x="0px" y="0px"
	 width="28px" height="35px" viewBox="-15.821 776.446 28 35" enable-background="new -15.821 776.446 28 35" xml:space="preserve">
<g>
	<g transform="translate(0,-952.36218)">
		<path fill="#010101" d="M-1.507,1734.017c-1.245,0-2.494,0.478-3.441,1.426c-0.647,0.646-1.063,1.436-1.269,2.266
			c-1.93,0.354-3.403,2.033-3.403,4.063c0,2.283,1.863,4.146,4.146,4.146H3c1.989,0,3.606-1.617,3.606-3.605
			c0-1.877-1.445-3.404-3.279-3.572c-0.036-1.195-0.479-2.385-1.392-3.296C0.987,1734.495-0.262,1734.017-1.507,1734.017z
			 M-1.507,1735.099c0.97,0,1.936,0.361,2.676,1.104c0.821,0.821,1.183,1.926,1.095,2.997c-0.025,0.298,0.195,0.56,0.493,0.584
			c0.017,0.002,0.031,0.002,0.048,0.002H3c1.408,0,2.524,1.116,2.524,2.524c0,1.406-1.116,2.523-2.524,2.523h-8.474
			c-1.699,0-3.064-1.365-3.064-3.064c0-1.612,1.236-2.93,2.813-3.061c0.247-0.02,0.449-0.205,0.489-0.451
			c0.125-0.754,0.473-1.475,1.054-2.056C-3.44,1735.463-2.477,1735.099-1.507,1735.099z M-5.629,1749.103c-0.202,0-0.402,0-0.604,0
			c0.101-0.176,0.202-0.35,0.302-0.523c0.227-0.393-0.38-0.746-0.606-0.354c-0.101,0.174-0.201,0.35-0.304,0.525
			c-0.101-0.177-0.202-0.353-0.303-0.525c-0.228-0.394-0.833-0.039-0.606,0.354c0.102,0.176,0.2,0.35,0.303,0.523
			c-0.202,0-0.403,0-0.605,0c-0.453,0-0.453,0.701,0,0.701c0.202,0,0.403,0,0.605,0c-0.102,0.175-0.201,0.349-0.303,0.522
			c-0.227,0.392,0.38,0.745,0.606,0.354c0.101-0.176,0.202-0.351,0.303-0.525c0.103,0.176,0.203,0.352,0.304,0.525
			c0.228,0.392,0.833,0.037,0.606-0.354c-0.102-0.175-0.201-0.349-0.302-0.522c0.202,0,0.402,0,0.604,0
			C-5.177,1749.805-5.177,1749.103-5.629,1749.103z M-0.871,1749.103c-0.201,0-0.402,0-0.604,0c0.101-0.176,0.2-0.35,0.301-0.523
			c0.229-0.393-0.38-0.746-0.605-0.354c-0.102,0.174-0.202,0.35-0.304,0.525c-0.101-0.177-0.202-0.353-0.304-0.525
			c-0.227-0.394-0.833-0.039-0.605,0.354c0.101,0.176,0.2,0.35,0.302,0.523c-0.201,0-0.403,0-0.605,0c-0.452,0-0.452,0.701,0,0.701
			c0.202,0,0.404,0,0.605,0c-0.102,0.175-0.2,0.349-0.302,0.522c-0.228,0.392,0.38,0.745,0.605,0.354
			c0.102-0.176,0.203-0.351,0.304-0.525c0.102,0.176,0.202,0.352,0.304,0.525c0.227,0.392,0.834,0.037,0.605-0.354
			c-0.101-0.175-0.201-0.349-0.301-0.522c0.201,0,0.402,0,0.604,0C-0.418,1749.805-0.418,1749.103-0.871,1749.103z M3.888,1749.103
			c-0.201,0-0.403,0-0.604,0c0.103-0.176,0.201-0.35,0.302-0.523c0.228-0.393-0.38-0.746-0.605-0.354
			c-0.102,0.174-0.202,0.35-0.303,0.525c-0.103-0.177-0.203-0.353-0.305-0.525c-0.228-0.394-0.833-0.039-0.605,0.354
			c0.1,0.176,0.199,0.35,0.302,0.523c-0.202,0-0.404,0-0.605,0c-0.451,0-0.451,0.701,0,0.701c0.201,0,0.403,0,0.605,0
			c-0.103,0.175-0.201,0.349-0.302,0.522c-0.228,0.392,0.379,0.745,0.605,0.354c0.102-0.176,0.202-0.351,0.305-0.525
			c0.101,0.176,0.201,0.352,0.303,0.525c0.227,0.392,0.833,0.037,0.605-0.354c-0.101-0.175-0.202-0.349-0.302-0.522
			c0.202,0,0.403,0,0.604,0C4.341,1749.805,4.341,1749.103,3.888,1749.103z"/>
	</g>
	<g>
		<g>
			<g>
				<path fill="none" stroke="#010101" stroke-width="2" stroke-miterlimit="10" d="M-1.821,778.277
					c-6.889,0-12.524,5.427-12.524,12.104c0,2.645,0.906,5.149,2.506,7.236l9.463,12.385c0.208,0.278,0.695,0.35,0.974,0.141
					c0.068-0.07,0.068-0.07,0.139-0.141l9.463-12.385c1.602-2.087,2.506-4.593,2.506-7.236
					C10.702,783.704,5.066,778.277-1.821,778.277z"/>
			</g>
		</g>
	</g>
</g>
</svg>
