<?xml version="1.0" encoding="utf-8"?>
<!-- Generator: Adobe Illustrator 16.0.0, SVG Export Plug-In . SVG Version: 6.00 Build 0)  -->
<!DOCTYPE svg PUBLIC "-//W3C//DTD SVG 1.1//EN" "http://www.w3.org/Graphics/SVG/1.1/DTD/svg11.dtd">
<svg version="1.1" id="Layer_1" xmlns="http://www.w3.org/2000/svg" xmlns:xlink="http://www.w3.org/1999/xlink" x="0px" y="0px"
	 width="32px" height="32px" viewBox="0 0 32 32" enable-background="new 0 0 32 32" xml:space="preserve">
<g opacity="0.7">
	<path fill="none" stroke="#FFCC02" stroke-miterlimit="10" d="M14.702,13.753c0.384-0.223,0.823-0.358,1.298-0.358
		s0.914,0.135,1.297,0.358"/>
	<path fill="none" stroke="#FFCC02" stroke-miterlimit="10" d="M14.702,18.247c-0.778-0.451-1.307-1.282-1.307-2.247"/>
	<path fill="none" stroke="#FFCC02" stroke-miterlimit="10" d="M14.702,13.753c-0.778,0.451-1.307,1.282-1.307,2.247"/>
	<path fill="none" stroke="#FFCC02" stroke-miterlimit="10" d="M18.605,16c0-0.965-0.529-1.796-1.309-2.247"/>
	<path fill="none" stroke="#FFCC02" stroke-miterlimit="10" d="M17.297,18.247c-0.383,0.222-0.822,0.358-1.297,0.358
		s-0.914-0.137-1.298-0.358"/>
	<path fill="none" stroke="#FFCC02" stroke-miterlimit="10" d="M18.605,16c0,0.965-0.529,1.796-1.309,2.247"/>
	<line fill="none" stroke="#FFCC02" stroke-miterlimit="10" x1="13.615" y1="11.869" x2="12.377" y2="9.724"/>
	<line fill="none" stroke="#FFCC02" stroke-miterlimit="10" x1="18.385" y1="20.132" x2="19.623" y2="22.275"/>
	<line fill="none" stroke="#FFCC02" stroke-miterlimit="10" x1="13.615" y1="20.132" x2="12.377" y2="22.275"/>
	<line fill="none" stroke="#FFCC02" stroke-miterlimit="10" x1="18.385" y1="11.869" x2="19.623" y2="9.724"/>
	<line fill="none" stroke="#FFCC02" stroke-miterlimit="10" x1="23.247" y1="16" x2="20.791" y2="16"/>
	<line fill="none" stroke="#FFCC02" stroke-miterlimit="10" x1="11.21" y1="16" x2="8.753" y2="16"/>
	<rect x="6.587" y="6.587" fill="none" width="18.826" height="18.826"/>
</g>
</svg>
