<?xml version="1.0" encoding="utf-8"?>
<!-- Generator: Adobe Illustrator 16.0.0, SVG Export Plug-In . SVG Version: 6.00 Build 0)  -->
<!DOCTYPE svg PUBLIC "-//W3C//DTD SVG 1.1//EN" "http://www.w3.org/Graphics/SVG/1.1/DTD/svg11.dtd">
<svg version="1.1" id="Layer_1" xmlns="http://www.w3.org/2000/svg" xmlns:xlink="http://www.w3.org/1999/xlink" x="0px" y="0px"
	 width="28px" height="35px" viewBox="292 378.5 28 35" enable-background="new 292 378.5 28 35" xml:space="preserve">
<g>
	<g>
		<g>
			<g>
				<path fill="none" stroke="#010101" stroke-width="2" stroke-miterlimit="10" d="M305.999,380.006
					c-6.888,0-12.524,5.427-12.524,12.104c0,2.645,0.906,5.15,2.507,7.237l9.463,12.385c0.208,0.278,0.694,0.35,0.973,0.141
					c0.069-0.07,0.069-0.07,0.139-0.141l9.464-12.385c1.602-2.087,2.506-4.593,2.506-7.237
					C318.523,385.433,312.887,380.006,305.999,380.006z"/>
			</g>
		</g>
	</g>
	<g>
		<path fill="#010101" d="M305.987,386.017c-0.253,0-0.476-0.222-0.476-0.476v-1.804c0-0.253,0.223-0.475,0.476-0.475
			s0.475,0.222,0.475,0.475v1.805C306.462,385.826,306.272,386.017,305.987,386.017z"/>
		<path fill="#010101" d="M301.589,387.63c-0.126,0-0.285-0.063-0.348-0.158l-1.171-1.393c-0.158-0.189-0.127-0.506,0.062-0.664
			c0.19-0.158,0.507-0.158,0.665,0.063l1.171,1.394c0.158,0.189,0.127,0.507-0.063,0.665
			C301.811,387.599,301.715,387.63,301.589,387.63z"/>
		<path fill="#010101" d="M299.247,391.712c-0.031,0-0.063,0-0.095,0l-1.772-0.316c-0.253-0.031-0.441-0.285-0.38-0.537
			c0.032-0.254,0.285-0.442,0.538-0.381l1.772,0.316c0.253,0.031,0.442,0.285,0.38,0.538
			C299.69,391.523,299.468,391.712,299.247,391.712z"/>
		<path fill="#010101" d="M298.52,397.219c-0.158,0-0.316-0.095-0.411-0.253c-0.127-0.222-0.063-0.506,0.157-0.633l1.551-0.886
			c0.222-0.127,0.507-0.063,0.633,0.158c0.127,0.223,0.063,0.506-0.158,0.633l-1.55,0.887
			C298.677,397.188,298.583,397.219,298.52,397.219z"/>
		<path fill="#010101" d="M303.329,400.922c-0.126,0.095-0.316,0.126-0.475,0.063c-0.253-0.095-0.381-0.348-0.284-0.601l0.633-1.677
			c0.095-0.254,0.348-0.382,0.601-0.285c0.253,0.095,0.381,0.348,0.285,0.602l-0.633,1.677
			C303.456,400.795,303.392,400.89,303.329,400.922z"/>
		<path fill="#010101" d="M309.437,400.668c-0.031,0.158-0.158,0.285-0.316,0.349c-0.253,0.095-0.506-0.032-0.601-0.253
			l-0.603-1.678c-0.096-0.253,0.031-0.506,0.253-0.603c0.253-0.094,0.507,0.032,0.603,0.254l0.601,1.678
			C309.405,400.51,309.437,400.605,309.437,400.668z"/>
		<path fill="#010101" d="M313.929,396.586c0.063,0.127,0.063,0.315,0,0.475c-0.126,0.222-0.41,0.316-0.633,0.19l-1.55-0.887
			c-0.222-0.127-0.316-0.411-0.19-0.633c0.127-0.223,0.411-0.315,0.634-0.189l1.551,0.886
			C313.803,396.459,313.898,396.523,313.929,396.586z"/>
		<path fill="#010101" d="M314.721,390.542c0.158,0.063,0.253,0.189,0.284,0.38c0.032,0.253-0.126,0.506-0.38,0.538l-1.771,0.315
			c-0.253,0.031-0.508-0.127-0.538-0.38c-0.031-0.253,0.127-0.506,0.38-0.537l1.771-0.316
			C314.563,390.51,314.658,390.51,314.721,390.542z"/>
		<path fill="#010101" d="M310.418,387.63c-0.096,0-0.222-0.031-0.315-0.127c-0.19-0.158-0.223-0.476-0.063-0.664l1.17-1.393
			c0.158-0.188,0.476-0.221,0.664-0.063c0.19,0.157,0.222,0.475,0.063,0.664l-1.172,1.393
			C310.671,387.567,310.544,387.63,310.418,387.63z"/>
		<path fill="#010101" d="M305.987,397.693c-2.911,0-5.284-2.374-5.284-5.285c0-2.91,2.373-5.283,5.284-5.283
			s5.285,2.373,5.285,5.283C311.272,395.32,308.898,397.693,305.987,397.693z M305.987,388.074c-2.405,0-4.335,1.963-4.335,4.335
			c0,2.405,1.962,4.336,4.335,4.336c2.374,0,4.335-1.931,4.335-4.336C310.322,390.004,308.392,388.074,305.987,388.074z"/>
	</g>
</g>
</svg>
