<?xml version="1.0" encoding="utf-8"?>
<!-- Generator: Adobe Illustrator 22.1.0, SVG Export Plug-In . SVG Version: 6.00 Build 0)  -->
<svg version="1.1" id="Layer_1" xmlns="http://www.w3.org/2000/svg" xmlns:xlink="http://www.w3.org/1999/xlink" x="0px" y="0px"
	 viewBox="0 0 67.9 20" style="enable-background:new 0 0 67.9 20;" xml:space="preserve">
<style type="text/css">
	.st0{opacity:0.7;fill:#F0C671;enable-background:new    ;}
	.st1{opacity:0.7;fill:#DC6D31;enable-background:new    ;}
	.st2{fill:#1D3E3F;}
</style>
<g id="civar-01" transform="translate(-7.4 -5)">
	<path id="XMLID_45_" class="st0" d="M54.9,23.7c-0.8,0.8-2,1.3-3.2,1.3c-1.2,0-2.3-0.4-3.2-1.3c-0.8-0.8-1.3-2-1.3-3.2
		c0-1.2,0.4-2.3,1.3-3.2c0.8-0.8,2-1.3,3.2-1.3c1.2,0,2.3,0.4,3.2,1.3C56.6,19.1,56.6,21.9,54.9,23.7z"/>
	<path id="XMLID_44_" class="st1" d="M23.2,12.6c-0.8,0.8-2,1.3-3.2,1.3c-1.2,0-2.3-0.4-3.2-1.3c-0.8-0.8-1.3-2-1.3-3.2
		c0-1.2,0.4-2.3,1.3-3.2C17.7,5.4,18.9,5,20,5c1.2,0,2.3,0.4,3.2,1.3c0.8,0.8,1.3,2,1.3,3.2C24.6,10.7,24.1,11.8,23.2,12.6z"/>
	<path id="XMLID_40_" class="st2" d="M16.9,19.8c-0.1,0.1-0.4,0.5-0.7,0.8c-0.4,0.4-0.8,0.7-1.3,0.9c-0.7,0.4-1.5,0.6-2.3,0.5
		c-1.4,0-2.7-0.5-3.7-1.5c-1-1-1.5-2.3-1.5-3.7c0-1.4,0.5-2.7,1.5-3.7c1-1,2.3-1.5,3.7-1.5c0.8,0,1.7,0.2,2.4,0.7
		c0.7,0.4,1.3,0.9,1.7,1.4l0.1,0.1c0.1,0.1,0.1,0.3,0.1,0.3c-0.1,0.1-0.4,0.3-0.8,0.5s-0.7,0.5-0.8,0.5s-0.3,0-0.4-0.2l-0.1-0.1
		c-0.6-0.6-1.3-0.9-2.1-0.9c-0.8,0-1.5,0.3-2,0.8c-0.5,0.5-0.8,1.3-0.8,2c0,0.8,0.3,1.5,0.8,2c0.5,0.5,1.3,0.8,2,0.8
		c0.9,0,1.7-0.4,2.3-1.1l0.1-0.1c0.1-0.1,0.2-0.1,0.2-0.1s0.4,0.3,0.8,0.5l0.1,0c0.4,0.2,0.8,0.5,0.9,0.5
		C16.9,19.6,16.9,19.7,16.9,19.8z"/>
	<path id="XMLID_39_" class="st2" d="M21.1,10.5C20.8,10.8,20.4,11,20,11c-0.4,0-0.8-0.1-1-0.4c-0.3-0.3-0.4-0.7-0.4-1.1
		c0-0.4,0.1-0.8,0.4-1c0.6-0.6,1.5-0.6,2.1,0c0.3,0.3,0.4,0.7,0.4,1.1C21.6,9.9,21.4,10.3,21.1,10.5z"/>
	<path id="XMLID_37_" class="st2" d="M19.1,21.7c-0.1,0-0.2-0.1-0.2-0.3v-9.3c0-0.1,0.1-0.2,0.3-0.2h1.7c0.2,0,0.3,0.1,0.3,0.3v9.3
		c0,0.2-0.1,0.3-0.2,0.3c0,0,0,0,0,0h-1.3C19.4,21.8,19.2,21.7,19.1,21.7z"/>
	<path id="XMLID_33_" class="st2" d="M28.7,21.5c-0.1,0.1-0.2,0.2-0.3,0.2h-1.7c-0.1,0-0.3-0.1-0.3-0.2c0-0.1-0.2-0.5-0.4-0.9L23,13
		c-0.2-0.4-0.3-0.8-0.4-0.9s0-0.2,0.1-0.2h2.2c0.1,0,0.2,0.1,0.2,0.1c0,0.1,0.2,0.5,0.4,0.9l1.6,3.9c0.2,0.4,0.3,0.9,0.4,1
		s0.2,0.1,0.2,0s0.3-0.6,0.4-1l1.6-4c0.2-0.4,0.3-0.8,0.4-0.9c0-0.1,0.1-0.1,0.2-0.1h2.2c0.1,0,0.2,0.1,0.1,0.2
		c0,0.1-0.2,0.5-0.4,0.9l-3.1,7.6C29,21,28.8,21.4,28.7,21.5z"/>
	<path id="XMLID_27_" class="st2" d="M41.9,21.7c-0.1,0-0.2-0.1-0.2-0.2v-0.5c0-0.1-0.1-0.1-0.3,0.1l-0.2,0.1
		c-0.8,0.5-1.7,0.8-2.7,0.8c-1.4,0-2.7-0.6-3.5-1.6c-1.8-2.1-1.8-5.2,0-7.3c0.9-1,2.2-1.6,3.5-1.6c1,0,2,0.3,2.8,0.9l0.1,0.1
		c0.1,0.1,0.3,0.1,0.3,0v-0.5c0-0.1,0.1-0.2,0.2-0.2h1.9c0.1,0,0.2,0.1,0.2,0.2c0,0,0,0,0,0v9.3c0,0.2-0.1,0.3-0.3,0.3h-1
		C42.4,21.7,42,21.7,41.9,21.7z M40.8,14.8c-0.5-0.5-1.3-0.9-2-0.8c-0.8,0-1.5,0.3-2,0.8c-0.5,0.5-0.8,1.3-0.8,2
		c0,0.8,0.3,1.5,0.8,2c0.5,0.5,1.3,0.8,2,0.8c0.8,0,1.5-0.3,2-0.8C41.9,17.7,42,15.9,40.8,14.8C40.9,14.8,40.8,14.8,40.8,14.8
		L40.8,14.8z"/>
	<path id="XMLID_23_" class="st2" d="M51.6,14.2c-0.2-0.1-0.5-0.2-0.7-0.2h-0.3c-0.8,0-1.4,0.4-1.8,1.1l-0.1,0.3
		c0,0.3-0.1,1-0.1,1.4v4.8c0,0.1-0.1,0.2-0.2,0.3c0,0,0,0,0,0h-2c-0.1,0-0.1-0.1-0.1-0.2v-9.5c0-0.1,0.1-0.2,0.2-0.2h1.9
		c0.1,0,0.2,0.1,0.2,0.1v0.2c0,0.1,0.1,0,0.3-0.1l0.1-0.1c0.6-0.3,1.2-0.5,1.9-0.5c0.2,0,0.4,0,0.7,0.1h0.1c0.1,0,0.2,0.1,0.2,0.2
		v2.2C51.9,14.2,51.7,14.2,51.6,14.2z"/>
	<path id="XMLID_18_" class="st2" d="M52.8,21.6c-0.3,0.3-0.7,0.4-1.1,0.4c-0.4,0-0.8-0.1-1-0.4c-0.6-0.6-0.6-1.5,0-2.1
		c0.3-0.3,0.6-0.4,1-0.4c0.8,0,1.5,0.7,1.5,1.5C53.2,21,53.1,21.3,52.8,21.6z"/>
	<path id="XMLID_6_" class="st2" d="M63.2,19.8C63.1,19.9,63,20,63,20.1l-0.1,0.1c-0.5,0.6-1,1-1.7,1.3c-0.7,0.4-1.5,0.6-2.3,0.5
		c-1.4,0-2.7-0.5-3.7-1.5c-1-1-1.5-2.3-1.5-3.7c0-1.4,0.5-2.7,1.5-3.7c1-1,2.3-1.5,3.7-1.5c0.8,0,1.7,0.2,2.4,0.7
		c0.7,0.4,1.2,0.8,1.7,1.4l0.1,0.1c0.1,0.1,0.1,0.3,0.1,0.4s-0.5,0.3-0.8,0.5s-0.7,0.5-0.8,0.5s-0.3,0-0.4-0.2L61,14.9
		c-0.6-0.6-1.3-0.9-2.1-0.9c-0.8,0-1.5,0.3-2,0.8c-0.5,0.5-0.8,1.3-0.8,2c0,0.8,0.3,1.5,0.8,2c0.5,0.5,1.3,0.8,2,0.8
		c0.8,0,1.6-0.4,2.2-1l0.1-0.1c0.1-0.1,0.3-0.2,0.4-0.1s0.4,0.3,0.8,0.5s0.7,0.5,0.8,0.5C63.2,19.5,63.3,19.7,63.2,19.8z"/>
	<path id="XMLID_2_" class="st2" d="M73.8,20.5c-2.1,2-5.4,2-7.4,0c-1-1-1.5-2.3-1.5-3.7c0-1.4,0.5-2.7,1.5-3.7c1-1,2.3-1.5,3.7-1.5
		c1.4,0,2.7,0.5,3.7,1.5c1,1,1.5,2.3,1.5,3.7C75.3,18.2,74.8,19.5,73.8,20.5z M72.1,14.8c-0.5-0.5-1.3-0.9-2-0.8
		c-0.8,0-1.5,0.3-2,0.8c-0.5,0.5-0.8,1.3-0.8,2c0,0.8,0.3,1.5,0.8,2c0.5,0.5,1.3,0.8,2,0.8c0.8,0,1.5-0.3,2-0.8
		C73.2,17.7,73.2,15.9,72.1,14.8C72.1,14.8,72.1,14.8,72.1,14.8L72.1,14.8z"/>
</g>
</svg>
