<?xml version="1.0" encoding="utf-8"?>
<!-- Generator: Adobe Illustrator 16.0.0, SVG Export Plug-In . SVG Version: 6.00 Build 0)  -->
<!DOCTYPE svg PUBLIC "-//W3C//DTD SVG 1.1//EN" "http://www.w3.org/Graphics/SVG/1.1/DTD/svg11.dtd">
<svg version="1.1" id="Layer_1" xmlns="http://www.w3.org/2000/svg" xmlns:xlink="http://www.w3.org/1999/xlink" x="0px" y="0px"
	 width="28px" height="35px" viewBox="292 378.5 28 35" enable-background="new 292 378.5 28 35" xml:space="preserve">
<g>
	<g transform="translate(0,-952.36218)">
		<path fill="#010101" d="M306.314,1335.746c-1.245,0-2.494,0.478-3.442,1.426c-0.647,0.646-1.063,1.436-1.268,2.265
			c-1.931,0.354-3.403,2.034-3.403,4.063c0,2.283,1.863,4.146,4.146,4.146h8.475c1.989,0,3.605-1.617,3.605-3.605
			c0-1.877-1.444-3.404-3.278-3.572c-0.036-1.196-0.48-2.385-1.393-3.296C308.808,1336.224,307.56,1335.746,306.314,1335.746z
			 M306.314,1336.828c0.97,0,1.935,0.362,2.676,1.104c0.821,0.821,1.182,1.925,1.094,2.997c-0.024,0.298,0.196,0.559,0.494,0.584
			c0.016,0.002,0.031,0.002,0.047,0.002h0.196c1.408,0,2.523,1.116,2.523,2.524c0,1.407-1.115,2.524-2.523,2.524h-8.475
			c-1.698,0-3.063-1.366-3.063-3.065c0-1.612,1.236-2.93,2.812-3.06c0.247-0.02,0.449-0.206,0.489-0.451
			c0.125-0.754,0.473-1.475,1.054-2.056C304.38,1337.192,305.344,1336.828,306.314,1336.828z M303.029,1348.226
			c-0.173,0.013-0.334,0.109-0.428,0.271l-1.804,3.12c-0.148,0.261-0.062,0.59,0.197,0.738c0.258,0.149,0.588,0.063,0.737-0.197
			l1.804-3.121c0.149-0.258,0.061-0.588-0.197-0.737C303.242,1348.244,303.133,1348.22,303.029,1348.226z M306.664,1348.226
			c-0.174,0.013-0.341,0.109-0.435,0.271l-2.163,3.746c-0.149,0.26-0.063,0.59,0.196,0.738c0.26,0.149,0.59,0.063,0.738-0.197
			l2.163-3.747c0.149-0.258,0.063-0.588-0.197-0.737C306.871,1348.244,306.767,1348.22,306.664,1348.226z M310.27,1348.226
			c-0.174,0.013-0.342,0.109-0.435,0.271l-1.803,3.12c-0.149,0.261-0.063,0.59,0.197,0.738c0.258,0.149,0.588,0.063,0.736-0.197
			l1.805-3.121c0.147-0.258,0.061-0.588-0.197-0.737C310.477,1348.244,310.373,1348.22,310.27,1348.226z"/>
	</g>
	<g>
		<g>
			<g>
				<path fill="none" stroke="#010101" stroke-width="2" stroke-miterlimit="10" d="M305.999,380.007
					c-6.888,0-12.524,5.427-12.524,12.105c0,2.644,0.906,5.149,2.507,7.236l9.463,12.385c0.208,0.278,0.694,0.349,0.973,0.14
					c0.069-0.069,0.069-0.069,0.139-0.14l9.464-12.385c1.602-2.087,2.506-4.593,2.506-7.236
					C318.523,385.434,312.887,380.007,305.999,380.007z"/>
			</g>
		</g>
	</g>
</g>
</svg>
