<?xml version="1.0" encoding="utf-8"?>
<!-- Generator: Adobe Illustrator 16.0.0, SVG Export Plug-In . SVG Version: 6.00 Build 0)  -->
<!DOCTYPE svg PUBLIC "-//W3C//DTD SVG 1.1//EN" "http://www.w3.org/Graphics/SVG/1.1/DTD/svg11.dtd">
<svg version="1.1" id="Layer_1" xmlns="http://www.w3.org/2000/svg" xmlns:xlink="http://www.w3.org/1999/xlink" x="0px" y="0px"
	 width="28px" height="35px" viewBox="292 378.5 28 35" enable-background="new 292 378.5 28 35" xml:space="preserve">
<g>
	<path fill="#010101" d="M306.314,383.385c-1.245,0-2.494,0.478-3.442,1.426c-0.647,0.646-1.063,1.436-1.268,2.265
		c-1.931,0.354-3.403,2.034-3.403,4.063c0,2.283,1.863,4.146,4.146,4.146h8.475c1.989,0,3.605-1.617,3.605-3.605
		c0-1.877-1.444-3.404-3.278-3.572c-0.036-1.196-0.48-2.385-1.393-3.296C308.808,383.863,307.56,383.385,306.314,383.385z
		 M306.314,384.467c0.97,0,1.935,0.362,2.676,1.104c0.821,0.821,1.182,1.925,1.094,2.997c-0.024,0.298,0.196,0.559,0.494,0.584
		c0.016,0.002,0.031,0.002,0.047,0.002h0.196c1.408,0,2.523,1.116,2.523,2.524c0,1.407-1.115,2.524-2.523,2.524h-8.475
		c-1.698,0-3.063-1.366-3.063-3.065c0-1.612,1.236-2.93,2.812-3.06c0.247-0.02,0.449-0.206,0.489-0.451
		c0.125-0.754,0.473-1.475,1.054-2.056C304.38,384.829,305.344,384.467,306.314,384.467z"/>
	<g>
		<g>
			<g>
				<path fill="none" stroke="#010101" stroke-width="2" stroke-miterlimit="10" d="M305.999,380.007
					c-6.888,0-12.524,5.427-12.524,12.105c0,2.644,0.906,5.149,2.507,7.236l9.463,12.385c0.208,0.278,0.694,0.349,0.973,0.14
					c0.069-0.069,0.069-0.069,0.139-0.14l9.464-12.385c1.602-2.087,2.506-4.593,2.506-7.236
					C318.523,385.434,312.887,380.007,305.999,380.007z"/>
			</g>
		</g>
	</g>
	<path fill="#010101" d="M308.95,397.471c-0.202,0-0.403,0-0.604,0c0.102-0.175,0.2-0.35,0.302-0.523
		c0.228-0.393-0.381-0.746-0.606-0.354c-0.101,0.174-0.202,0.35-0.303,0.524c-0.102-0.176-0.202-0.352-0.304-0.524
		c-0.228-0.393-0.833-0.039-0.605,0.354c0.1,0.175,0.2,0.35,0.301,0.523c-0.201,0-0.402,0-0.604,0c-0.452,0-0.452,0.701,0,0.701
		c0.202,0,0.403,0,0.604,0c-0.101,0.175-0.2,0.349-0.301,0.522c-0.228,0.393,0.379,0.745,0.605,0.354
		c0.102-0.176,0.202-0.351,0.304-0.525c0.101,0.176,0.202,0.351,0.303,0.525c0.228,0.392,0.834,0.038,0.606-0.354
		c-0.102-0.175-0.201-0.349-0.302-0.522c0.201,0,0.402,0,0.604,0C309.403,398.172,309.403,397.471,308.95,397.471z"/>
	<path fill="#010101" d="M312.95,397.471c-0.202,0-0.403,0-0.604,0c0.102-0.175,0.2-0.35,0.302-0.523
		c0.228-0.393-0.381-0.746-0.606-0.354c-0.101,0.174-0.202,0.35-0.303,0.524c-0.102-0.176-0.202-0.352-0.304-0.524
		c-0.228-0.393-0.833-0.039-0.605,0.354c0.1,0.175,0.2,0.35,0.301,0.523c-0.201,0-0.402,0-0.604,0c-0.452,0-0.452,0.701,0,0.701
		c0.202,0,0.403,0,0.604,0c-0.101,0.175-0.2,0.349-0.301,0.522c-0.228,0.393,0.379,0.745,0.605,0.354
		c0.102-0.176,0.202-0.351,0.304-0.525c0.101,0.176,0.202,0.351,0.303,0.525c0.228,0.392,0.834,0.038,0.606-0.354
		c-0.102-0.175-0.201-0.349-0.302-0.522c0.201,0,0.402,0,0.604,0C313.403,398.172,313.403,397.471,312.95,397.471z"/>
	<path fill="#010101" d="M301.27,395.865c-0.174,0.012-0.342,0.109-0.434,0.27l-1.803,3.121c-0.149,0.26-0.063,0.589,0.197,0.737
		c0.258,0.149,0.588,0.063,0.736-0.196l1.805-3.121c0.147-0.259,0.061-0.589-0.197-0.738
		C301.477,395.882,301.373,395.857,301.27,395.865z"/>
	<path fill="#010101" d="M304.27,395.865c-0.174,0.013-0.342,0.109-0.435,0.271l-1.803,3.121c-0.149,0.26-0.063,0.589,0.197,0.737
		c0.258,0.149,0.588,0.063,0.736-0.196l1.805-3.121c0.147-0.259,0.061-0.589-0.197-0.738
		C304.477,395.882,304.373,395.857,304.27,395.865z"/>
</g>
</svg>
